# xmcd
#
# Track frame offsets:
# 182
# 14755
# 28522
# 40722
# 61702
# 76340
# 92175
# 106910
# 119850
# 136912
# 151095
# 162317
# 178117
# 191442
# 203807
# 216115
# 225920
# 237377
# 252417
# 265660
# 279187
# 290782
# 302985
# 315582
# 329327
#
# Disc length: 4582 seconds
#
# Revision: 1
# Processed by: cddbd v1.5.1PL0 Copyright (c) Steve Scherf et al.
# Submitted via: CedeCatalogueitor 2.6.0.6 http://personales.ya.com/cdcatalogueitor
#
DISCID=5e11e419
DTITLE=Nat King Cole - Collection Vol. 2
DYEAR=1991
DGENRE=
TTITLE0=When I Fall In Love 
TTITLE1=Blue Gardenia
TTITLE2=Answer Me (my Love)
TTITLE3=Sweet Lorraine
TTITLE4=Goonight Irene
TTITLE5=Mona Lisa
TTITLE6=Too Young
TTITLE7=Ramblin' Rose
TTITLE8=Route 66
TTITLE9=It's All In The Game
TTITLE10=He'll Have To Go
TTITLE11=Unforgettable
TTITLE12=Smile
TTITLE13=People
TTITLE14=Love Is A Many Splendored Thing
TTITLE15=More
TTITLE16=Fascination
TTITLE17=Stardust
TTITLE18=Nature Boy
TTITLE19=(I Love You) For Sentimental Reasons
TTITLE20=Around The World
TTITLE21=Autumn Leaves
TTITLE22=When You're Smiling
TTITLE23=September Song
TTITLE24=The Christmas Song (Merry Christmas To You)
EXTD=
EXTT0=
EXTT1=
EXTT2=
EXTT3=
EXTT4=
EXTT5=
EXTT6=
EXTT7=
EXTT8=
EXTT9=
EXTT10=
EXTT11=
EXTT12=
EXTT13=
EXTT14=
EXTT15=
EXTT16=
EXTT17=
EXTT18=
EXTT19=
EXTT20=
EXTT21=
EXTT22=
EXTT23=
EXTT24=
PLAYORDER=
